<svg width="48" height="48" viewBox="0 0 48 48" fill="none" xmlns="http://www.w3.org/2000/svg">
<circle cx="24" cy="24" r="23.5" fill="#F4F7FF" stroke="#9CB3FE"/>
<path fill-rule="evenodd" clip-rule="evenodd" d="M23.9994 14C23.263 14 22.666 14.597 22.666 15.3333C22.666 16.0697 23.263 16.6667 23.9994 16.6667C24.7358 16.6667 25.3327 16.0697 25.3327 15.3333C25.3327 14.597 24.7358 14 23.9994 14ZM20.666 15.3333C20.666 13.4924 22.1584 12 23.9994 12C25.8403 12 27.3327 13.4924 27.3327 15.3333C27.3327 15.9127 27.1849 16.4576 26.9249 16.9322L31.0681 21.0753C31.5426 20.8155 32.0873 20.6678 32.6666 20.6678C34.5075 20.6678 35.9999 22.1602 35.9999 24.0011C35.9999 25.8421 34.5075 27.3345 32.6666 27.3345C32.0871 27.3345 31.5422 27.1866 31.0674 26.9266L26.9254 31.0686C27.1851 31.543 27.3327 32.0875 27.3327 32.6666C27.3327 34.5075 25.8403 35.9999 23.9994 35.9999C22.1584 35.9999 20.666 34.5075 20.666 32.6666C20.666 32.0873 20.8138 31.5426 21.0736 31.068L16.9322 26.9267C16.4576 27.1867 15.9127 27.3345 15.3333 27.3345C13.4924 27.3345 12 25.8421 12 24.0011C12 22.1602 13.4924 20.6678 15.3333 20.6678C15.9122 20.6678 16.4566 20.8153 16.931 21.0749L21.0737 16.9321C20.8138 16.4575 20.666 15.9127 20.666 15.3333ZM29.6808 25.4848C29.4583 25.038 29.3332 24.5342 29.3332 24.0011C29.3332 23.4678 29.4584 22.9638 29.6811 22.5168L25.4832 18.319C25.0363 18.5416 24.5325 18.6667 23.9994 18.6667C23.4662 18.6667 22.9622 18.5415 22.5153 18.3189L18.3184 22.5159C18.5413 22.9631 18.6667 23.4675 18.6667 24.0011C18.6667 24.5343 18.5415 25.0381 18.319 25.485L22.5151 29.6811C22.9621 29.4584 23.4661 29.3332 23.9994 29.3332C24.5329 29.3332 25.0371 29.4585 25.4842 29.6814L29.6808 25.4848ZM22.666 32.6666C22.666 31.9301 23.263 31.3332 23.9994 31.3332C24.7358 31.3332 25.3327 31.9301 25.3327 32.6666C25.3327 33.403 24.7358 33.9999 23.9994 33.9999C23.263 33.9999 22.666 33.403 22.666 32.6666ZM15.3333 22.6678C14.597 22.6678 14 23.2647 14 24.0011C14 24.7375 14.597 25.3345 15.3333 25.3345C16.0697 25.3345 16.6667 24.7375 16.6667 24.0011C16.6667 23.2647 16.0697 22.6678 15.3333 22.6678ZM31.3332 24.0011C31.3332 23.2647 31.9301 22.6678 32.6666 22.6678C33.403 22.6678 33.9999 23.2647 33.9999 24.0011C33.9999 24.7375 33.403 25.3345 32.6666 25.3345C31.9301 25.3345 31.3332 24.7375 31.3332 24.0011Z" fill="url(#paint0_linear_2990_6211)"/>
<defs>
<linearGradient id="paint0_linear_2990_6211" x1="12" y1="24" x2="36" y2="24.0012" gradientUnits="userSpaceOnUse">
<stop stop-color="#395DF2"/>
<stop offset="0.526042" stop-color="#2391F6"/>
<stop offset="1" stop-color="#B072FF"/>
</linearGradient>
</defs>
</svg>
