<svg width="291" height="52" viewBox="0 0 291 52" fill="none" xmlns="http://www.w3.org/2000/svg">
<path d="M166.165 26.1051C166.165 17.4188 173.162 10.4159 181.831 10.4188C190.633 10.4217 197.581 17.4275 197.517 26.3568C197.456 34.9361 190.321 41.8956 181.513 41.7943C173.153 41.696 166.165 34.6266 166.165 26.1051ZM167.909 23.0419C167.874 23.0911 167.822 23.1345 167.811 23.1894C167.041 27.0076 167.712 30.5626 169.78 33.8572C170.018 34.2361 170.258 34.2303 170.472 33.8051C170.949 32.8592 171.617 32.0551 172.332 31.2857C172.676 30.9126 173.006 30.765 173.437 31.1555C173.882 31.5605 173.642 31.8642 173.335 32.1882C172.711 32.8535 172.112 33.539 171.698 34.3663C171.059 35.6477 171.403 36.3072 172.815 36.4749C173.937 36.608 175.045 36.4807 176.141 36.2377C181.148 35.1212 185.635 32.8592 189.849 30.0043C191.845 28.6506 191.88 28.6332 191.914 26.2527C191.966 22.8828 191.596 19.5651 190.286 16.4151C189.811 15.2725 189.218 14.1936 188.238 13.3924C187.246 12.5825 186.277 12.5651 185.238 13.3201C184.561 13.8118 184.096 14.4858 183.642 15.1742C183.338 15.6312 183.393 15.8713 183.934 16.0795C185.938 16.8519 187.792 17.9076 189.58 19.0965C190.462 19.6837 190.994 20.3923 191.064 21.4713C191.11 22.1799 190.928 22.5762 190.245 22.744C187.584 23.4093 185.079 24.4766 182.621 25.677C182.357 25.8043 182.103 26.1803 181.779 25.9258C181.495 25.7031 181.718 25.3241 181.689 25.0175C181.66 24.7283 181.848 24.5692 182.097 24.4564C182.511 24.2655 182.913 24.0543 183.323 23.8605C185.522 22.8163 187.792 21.9717 190.231 21.3556C190.092 21.2254 190.02 21.1444 189.936 21.0779C186.17 18.1419 181.967 16.2473 177.177 15.825C175.297 15.6601 173.437 15.8366 171.707 16.6957C169.616 17.7312 168.661 19.6895 169.164 21.9659C169.821 24.9394 171.704 27.1031 173.902 29.0497C174.229 29.339 174.571 29.2407 174.892 28.9861C176.248 27.9043 177.692 26.9469 179.178 26.056C179.592 25.8072 179.748 25.4659 179.777 24.9886C179.919 22.5733 180.272 20.1899 180.995 17.87C181.137 17.4188 181.31 17.1585 181.866 17.3291C182.406 17.4969 182.482 17.7833 182.297 18.2547C182.204 18.4862 182.14 18.7291 182.077 18.9721C180.85 23.5944 180.755 28.2427 181.744 32.9142C181.816 33.2526 181.938 33.646 181.579 33.8485C180.931 34.2187 180.275 34.5774 179.468 34.1696C178.432 33.646 177.385 33.1456 176.402 32.5266C172.702 30.201 169.558 27.3779 168.039 23.1142C168.028 23.0824 167.967 23.0708 167.909 23.039V23.0419ZM181.866 40.458C182.409 40.4175 182.956 40.3943 183.5 40.3365C183.879 40.296 184.009 40.1485 183.662 39.8361C182.719 38.977 182.054 37.9096 181.588 36.7439C181.348 36.1452 181.079 36.1423 180.564 36.3361C178.6 37.0737 176.595 37.6609 174.492 37.8315C174.339 37.8431 174.116 37.8113 174.073 37.9848C174.015 38.2047 174.255 38.2712 174.403 38.3609C176.697 39.7406 179.181 40.4435 181.866 40.4609V40.458ZM173.359 14.561C173.547 14.6304 173.59 14.6651 173.628 14.6564C176.237 14.2312 178.797 14.506 181.325 15.2089C181.796 15.3391 182.106 15.18 182.34 14.7605C182.797 13.942 183.332 13.1812 184.041 12.5564C184.171 12.4407 184.402 12.3597 184.365 12.1515C184.318 11.8853 184.049 11.9345 183.861 11.9085C181.521 11.5701 179.233 11.7957 177.006 12.5969C175.725 13.0568 174.527 13.6672 173.356 14.561H173.359ZM186.271 39.6076C186.65 39.6278 186.994 39.5121 187.321 39.3386C188.461 38.7253 189.109 37.684 189.702 36.5964C189.852 36.3187 189.733 36.1741 189.415 36.1828C188.868 36.1972 188.322 36.2175 187.775 36.203C186.268 36.1567 184.787 35.9109 183.332 35.5175C183.118 35.4596 182.861 35.3584 182.687 35.5609C182.525 35.7489 182.702 35.9514 182.78 36.1278C183.173 37.0303 183.647 37.8836 184.333 38.5981C184.865 39.1505 185.467 39.5815 186.277 39.6076H186.271ZM180.39 33.0704C179.983 31.1035 179.818 29.2436 179.722 27.3055C178.192 28.2254 176.798 29.1626 175.444 30.282C177.003 31.3985 178.585 32.3039 180.39 33.0704ZM185.085 34.5311C186.809 34.8956 188.452 34.9592 190.106 34.7741C190.436 34.7365 190.601 34.4993 190.697 34.1898C190.98 33.2816 191.237 32.3646 191.388 31.4216C191.428 31.1729 191.68 30.8373 191.408 30.6811C191.174 30.5481 190.945 30.8865 190.734 31.034C189.224 32.084 187.651 33.027 186.028 33.8948C185.736 34.051 185.4 34.1435 185.085 34.5311ZM195.463 29.7411C195.437 29.5126 195.426 29.2146 195.362 28.9283C195.278 28.5407 195.362 28.0055 194.963 27.8291C194.486 27.6237 194.321 28.2167 194.006 28.4365C193.366 28.882 192.976 29.4634 192.918 30.2935C192.843 31.3811 192.571 32.4456 192.293 33.5014C192.247 33.6749 192.154 33.8398 192.334 33.9989C192.525 34.1696 192.684 34.0249 192.831 33.9497C194.515 33.082 195.409 31.7051 195.463 29.7353V29.7411ZM191.619 15.6052C191.451 15.9147 191.611 16.068 191.671 16.2242C192.146 17.4101 192.461 18.6423 192.727 19.889C192.93 20.8436 192.953 20.8783 193.919 20.9188C194.86 20.9593 195.117 20.5514 194.691 19.6952C193.922 18.1622 192.918 16.8056 191.619 15.6052ZM194.09 22.232C193.87 22.2609 193.627 22.151 193.499 22.3651C193.355 22.608 193.621 22.7151 193.731 22.8655C194.13 23.4122 194.544 23.9502 194.943 24.4969C195.119 24.7398 195.281 24.8527 195.521 24.5576C196.314 23.5799 195.967 22.5936 194.735 22.3477C194.512 22.3043 194.289 22.2696 194.09 22.2349V22.232ZM193.233 24.6299C193.233 25.4456 193.23 26.1572 193.236 26.8659C193.236 26.9931 193.329 27.0655 193.462 27.0539C193.734 27.0307 194.347 26.1341 194.217 25.8969C193.982 25.4746 193.8 25.0031 193.233 24.6299ZM191.269 36.7873C191.68 36.5039 192.117 36.2435 192.366 35.6795C191.559 35.6853 191.284 36.1047 191.269 36.7873Z" fill="white"/>
<path d="M239.612 26.3367C239.612 25.0813 239.607 23.826 239.612 22.5735C239.618 21.7867 239.902 21.5119 240.686 21.5119C242.786 21.509 244.886 21.509 246.986 21.5119C247.677 21.5119 248.012 21.7867 248.012 22.3247C248.012 22.8483 247.651 23.1549 246.986 23.1578C245.366 23.1636 243.743 23.1809 242.123 23.1491C241.487 23.1375 241.284 23.3776 241.293 23.9937C241.319 25.6888 241.189 25.5268 242.788 25.5297C243.746 25.5297 244.706 25.521 245.664 25.5326C246.283 25.5384 246.731 25.9086 246.676 26.3917C246.612 26.9644 246.254 27.1929 245.681 27.1842C244.518 27.164 243.353 27.1987 242.19 27.1698C241.556 27.1524 241.284 27.3578 241.29 28.0317C241.307 29.5908 241.281 29.5908 242.852 29.5908C244.22 29.5908 245.591 29.6024 246.96 29.585C247.541 29.5793 247.96 29.7441 248.004 30.3863C248.041 30.9301 247.645 31.2367 246.934 31.2367C244.857 31.2396 242.78 31.2425 240.703 31.2367C239.899 31.2367 239.612 30.9359 239.607 30.1057C239.601 28.8503 239.607 27.595 239.607 26.3425L239.612 26.3367Z" fill="white"/>
<path d="M221.199 21.5088C222.272 21.5088 223.342 21.5146 224.415 21.5088C224.979 21.5059 225.361 21.72 225.364 22.3216C225.367 22.9262 224.973 23.1547 224.421 23.1547C222.801 23.1576 221.181 23.1547 219.561 23.1547C218.734 23.1547 218.647 23.2415 218.639 24.0427C218.631 25.03 219.128 25.5237 220.128 25.5237C221.086 25.5237 222.046 25.5179 223.004 25.5237C223.652 25.5295 224.039 25.8505 224.036 26.3596C224.036 26.8745 223.672 27.1638 222.995 27.1667C221.832 27.1724 220.666 27.1869 219.504 27.1609C218.85 27.1464 218.618 27.4125 218.624 28.0576C218.639 29.5848 218.618 29.5848 220.163 29.5848C221.554 29.5848 222.946 29.5819 224.337 29.5848C225.037 29.5848 225.364 29.8538 225.367 30.3919C225.367 30.9328 225.031 31.2249 224.352 31.2249C222.231 31.2307 220.108 31.2336 217.988 31.2249C217.279 31.2249 216.996 30.9357 216.993 30.227C216.987 27.6497 216.987 25.0724 216.993 22.4952C216.993 21.772 217.259 21.5117 217.979 21.5059C219.052 21.4973 220.123 21.5059 221.196 21.5059L221.199 21.5088Z" fill="white"/>
<path d="M255.388 21.5088C256.401 21.4886 257.384 21.6448 258.318 22.0468C258.946 22.3158 259.157 22.7034 258.94 23.1952C258.694 23.7592 258.275 23.7882 257.754 23.5944C256.51 23.1315 255.232 23.0072 253.927 23.2964C253.366 23.4208 252.857 23.6464 252.86 24.3377C252.86 25.0262 253.375 25.2257 253.93 25.3791C254.821 25.6249 255.75 25.4427 256.646 25.6307C257.78 25.865 258.822 26.2439 259.284 27.4212C259.756 28.6216 259.287 29.8828 258.165 30.5452C256.947 31.2625 255.605 31.2914 254.251 31.2018C253.502 31.1526 252.765 31.0195 252.056 30.739C251.339 30.4584 251.064 30.0766 251.249 29.5472C251.425 29.0439 251.845 28.9109 252.568 29.148C253.8 29.5501 255.053 29.6976 256.34 29.4865C256.476 29.4633 256.615 29.4547 256.742 29.4142C257.254 29.2464 257.757 29.0439 257.772 28.396C257.786 27.7047 257.263 27.4704 256.719 27.3286C256.213 27.1985 255.689 27.1522 255.16 27.1638C254.237 27.1811 253.346 27.0307 252.519 26.591C250.772 25.6596 250.691 23.2675 252.374 22.2117C253.294 21.6332 254.318 21.4741 255.385 21.5059L255.388 21.5088Z" fill="white"/>
<path d="M209.903 21.4858C211.098 21.4887 212.13 21.8994 213.021 22.6775C213.611 23.1924 213.71 23.6523 213.322 24.066C212.96 24.4536 212.495 24.4102 211.948 23.9387C210.719 22.8771 208.969 22.8771 207.768 23.9358C206.556 25.006 206.293 26.7531 207.143 28.0779C208.179 29.692 210.348 30.0593 211.852 28.8705C211.96 28.7866 212.058 28.6911 212.162 28.6015C212.564 28.2688 212.972 28.292 213.316 28.6593C213.663 29.0325 213.637 29.4432 213.279 29.8135C212.263 30.8577 211.002 31.2944 209.57 31.225C207.152 31.1064 205.191 29.1771 205.009 26.7734C204.821 24.2713 206.464 22.0556 208.879 21.5784C209.212 21.5118 209.559 21.5147 209.897 21.4829L209.903 21.4858Z" fill="white"/>
<path d="M266.209 21.5089C267.485 21.5089 268.763 21.5031 270.039 21.5089C270.678 21.5118 271.109 21.8531 271.051 22.3449C270.982 22.906 270.623 23.1635 270.056 23.1548C269.304 23.1461 268.549 23.175 267.8 23.1461C267.204 23.123 266.993 23.3775 266.999 23.9589C267.016 26.0329 267.002 28.1068 267.011 30.1837C267.011 30.6002 266.935 30.956 266.522 31.1498C265.935 31.4246 265.368 31.0081 265.365 30.2705C265.353 28.2428 265.365 26.2122 265.362 24.1845C265.362 23.1837 265.333 23.1577 264.312 23.1577C263.626 23.1577 262.944 23.1664 262.258 23.1548C261.706 23.1461 261.335 22.906 261.347 22.2957C261.359 21.7143 261.714 21.5089 262.247 21.5118C263.568 21.5118 264.893 21.5118 266.215 21.5118L266.209 21.5089Z" fill="white"/>
<path d="M228.656 26.3426C228.656 25.067 228.653 23.7913 228.656 22.5157C228.659 21.8302 228.934 21.5062 229.486 21.5062C230.024 21.5062 230.299 21.836 230.299 22.5302C230.305 24.581 230.299 26.6289 230.302 28.6798C230.302 29.4405 230.446 29.5822 231.225 29.5822C232.818 29.5851 234.415 29.5822 236.009 29.5822C236.68 29.5822 237.044 29.8773 237.044 30.3921C237.044 30.8983 236.657 31.2223 236.012 31.2252C233.915 31.231 231.82 31.231 229.723 31.2252C228.934 31.2252 228.656 30.9446 228.653 30.1636C228.647 28.888 228.653 27.6124 228.653 26.3368L228.656 26.3426Z" fill="white"/>
<path d="M273.666 26.3625C273.666 25.0666 273.675 23.7678 273.663 22.472C273.658 21.9079 273.849 21.529 274.459 21.5145C275.066 21.503 275.309 21.8877 275.312 22.4344C275.321 25.0521 275.321 27.667 275.312 30.2848C275.312 30.8372 275.04 31.2335 274.459 31.219C273.886 31.2046 273.652 30.8314 273.661 30.2529C273.681 28.9571 273.666 27.6583 273.666 26.3625Z" fill="white"/>
<path d="M288.754 29.8742C287.247 27.2535 285.737 24.6358 284.23 22.018C284.048 21.7027 283.811 21.4771 283.42 21.5118C282.943 21.4887 282.746 21.8242 282.55 22.1684C281.552 23.9011 280.554 25.6337 279.556 27.3663C279.058 28.2341 278.552 29.0961 278.069 29.9696C277.806 30.4498 277.933 30.8692 278.41 31.1267C278.879 31.3783 279.246 31.1729 279.509 30.7622C279.718 30.4382 279.932 30.1114 280.088 29.7614C280.285 29.3217 280.591 29.1829 281.06 29.1944C282.223 29.2205 283.391 29.2841 284.545 29.1829C285.85 29.0672 286.842 29.2899 287.316 30.687C287.487 31.1874 287.973 31.4188 288.494 31.1151C288.994 30.8258 289.04 30.363 288.76 29.8771L288.754 29.8742ZM284.791 27.5544C284.678 27.5573 284.563 27.5601 284.45 27.5601C284.109 27.5601 283.767 27.5601 283.426 27.5601C282.995 27.5601 282.561 27.5601 282.13 27.5601C281.664 27.5601 281.471 27.3663 281.719 26.9238C282.165 26.1341 282.625 25.3531 283.085 24.5721C283.293 24.2193 283.547 24.2077 283.756 24.5548C284.233 25.3502 284.699 26.1573 285.144 26.9701C285.335 27.3172 285.19 27.5457 284.788 27.5573L284.791 27.5544Z" fill="white"/>
<path d="M135.739 32.7793V29.7973H132.757V28.7753H135.739V25.7933H136.761V28.7753H139.743V29.7973H136.761V32.7793H135.739Z" fill="white"/>
<path fill-rule="evenodd" clip-rule="evenodd" d="M8.06803 37.5913C4.45757 34.901 2.11504 30.6012 2.11504 25.7588C2.11504 17.6074 8.74696 10.994 16.9211 10.994C23.6699 10.994 31.0392 15.0159 32.8197 21.1765C30.8279 14.294 24.4657 9.25879 16.9211 9.25879C7.78477 9.25879 0.375 16.6479 0.375 25.7588C0.375 34.8697 7.78477 42.2588 16.9211 42.2588C26.0574 42.2588 33.4672 34.8697 33.4672 25.7588V24.889H32.5589C32.532 24.889 32.4915 24.889 32.4375 24.889C32.3296 24.889 32.1768 24.8845 31.9789 24.8755C31.5878 24.8621 31.0482 24.8351 30.4412 24.7813C29.2003 24.6737 27.784 24.463 26.8218 24.0774C25.2706 23.4587 24.3938 22.6426 23.3956 21.6831L23.3372 21.6293C22.3345 20.6698 21.2105 19.5892 19.2546 18.6746C17.3302 17.7733 15.2035 17.9168 13.6433 18.2396C12.852 18.401 12.1686 18.6163 11.6875 18.7911C11.4447 18.8763 11.2514 18.957 11.1165 19.0108C10.3296 19.3426 9.56527 19.7327 8.79642 20.0959C8.79642 20.0959 10.3116 20.5084 11.058 20.7415C11.085 20.7505 11.1255 20.764 11.1839 20.7819C11.2963 20.8178 11.4582 20.876 11.6515 20.9568C12.0472 21.1182 12.5643 21.3558 13.0768 21.6876C13.8861 22.2032 14.5561 22.8578 14.8303 23.6559C13.1173 23.8801 11.5076 24.6334 10.3027 25.3373C9.57427 25.7633 8.96728 26.1937 8.54014 26.512C8.32881 26.6735 8.15796 26.808 8.04106 26.9021C7.94214 26.9828 6.39544 28.3414 6.39544 28.3414C6.39544 28.3414 8.39176 28.5521 9.37643 28.7494C10.0329 28.8794 10.9141 29.0947 11.8404 29.413C12.7666 29.7358 13.7018 30.1573 14.4796 30.6998C15.2575 31.2423 15.8285 31.8656 16.1073 32.583C16.9256 34.6724 16.1208 36.7035 14.5066 37.8468C12.9105 38.9767 10.487 39.2457 8.06354 37.5868L8.06803 37.5913ZM13.7153 40.1739C14.3672 39.9631 14.9742 39.6538 15.5228 39.2682C17.7169 37.7123 18.8724 34.8607 17.7349 31.9553C17.2853 30.8119 16.431 29.9421 15.4823 29.2785C14.5291 28.6149 13.4365 28.1307 12.4204 27.7765C11.7549 27.5433 11.1075 27.364 10.5455 27.2294C10.7478 27.0994 10.9591 26.9649 11.1884 26.8304C12.5283 26.0457 14.2189 25.3239 15.8375 25.3239C18.2789 25.3239 20.0954 26.0726 21.831 26.8707C21.9883 26.9425 22.1457 27.0187 22.3076 27.0904C23.8588 27.8168 25.4864 28.579 27.3793 28.579C29.2722 28.579 30.6436 28.0634 31.6282 27.5254C30.7515 34.8428 24.5062 40.5191 16.9301 40.5191C15.8285 40.5191 14.7539 40.3981 13.7243 40.1739H13.7153ZM29.7398 26.4627C29.0879 26.6824 28.2965 26.8438 27.3748 26.8438C25.8911 26.8438 24.6141 26.252 22.9955 25.4987C22.8516 25.4315 22.7077 25.3642 22.5594 25.297C20.9362 24.5482 19.0613 23.7546 16.6198 23.6111C16.2916 22.0015 15.0686 20.8985 14.0165 20.2259C13.8996 20.1497 13.7827 20.0779 13.6658 20.0107C13.7692 19.9883 13.8771 19.9614 13.9896 19.939C15.4014 19.6475 17.083 19.5758 18.5083 20.2483C20.1988 21.0419 21.1565 21.9566 22.1502 22.9072L22.1862 22.9385C23.2068 23.916 24.2904 24.9428 26.1743 25.696C27.2219 26.113 28.5798 26.3372 29.7398 26.4627Z" fill="white"/>
<path d="M44.1771 22.2036V12.4561H46.0476L47.6662 16.3703L49.2849 12.4561H51.1553V22.2036H49.6895V14.7114L47.6527 19.5403L45.6159 14.7114V22.2036H44.1771Z" fill="white"/>
<path d="M53.3764 22.2036L56.4473 12.4561H58.4302L61.5011 22.2036H59.797L59.0866 19.8497H55.7234L55.0265 22.2036H53.3809H53.3764ZM56.0966 18.5539H58.7224L57.4095 14.2226L56.0966 18.5539Z" fill="white"/>
<path d="M63.9021 22.2036V12.4561H65.5926L69.1267 19.2758L69.0997 12.4561H70.525V22.2036H68.9738L65.3004 15.1597L65.3274 22.2036H63.9021Z" fill="white"/>
<path d="M76.1453 22.2036V13.8774H73.1148V12.4561H80.8483V13.8774H77.8179V22.2036H76.1408H76.1453Z" fill="white"/>
<path d="M82.6963 22.2036L85.7672 12.4561H87.75L90.8209 22.2036H89.1169L88.4065 19.8497H85.0433L84.3464 22.2036H82.7008H82.6963ZM85.4165 18.5539H88.0423L86.7294 14.2226L85.4165 18.5539Z" fill="white"/>
<path d="M44.357 38.9099V29.1624H46.0476L49.5816 35.9821L49.5546 29.1624H50.9799V38.9099H49.4287L45.7553 31.866L45.7823 38.9099H44.357Z" fill="white"/>
<path d="M54.4645 38.9099V29.1624H60.8581V30.5837H56.1371V33.3008H59.1945V34.6908H56.1371V37.4886H60.9121V38.9099H54.46H54.4645Z" fill="white"/>
<path d="M66.375 38.9099V30.5837H63.3445V29.1624H71.078V30.5837H68.0476V38.9099H66.3705H66.375Z" fill="white"/>
<path d="M74.1804 38.9099L73.0339 29.1624H74.5131L75.1291 35.5965L76.3836 29.1624H77.638L78.8925 35.5382L79.5084 29.1624H80.9337L79.8007 38.9099H78.2945L76.9951 32.0319L75.6822 38.9099H74.1759H74.1804Z" fill="white"/>
<path d="M86.7564 39.0623C86.0684 39.0623 85.4345 38.865 84.8589 38.4794C84.2834 38.0893 83.8203 37.5199 83.4786 36.7756C83.1324 36.0268 82.9615 35.1166 82.9615 34.0405C82.9615 32.9645 83.1324 32.0498 83.4786 31.3055C83.8248 30.5567 84.2834 29.9918 84.8589 29.6017C85.4345 29.2116 86.0684 29.0188 86.7564 29.0188C87.4443 29.0188 88.0737 29.2161 88.6493 29.6017C89.2203 29.9918 89.6834 30.5612 90.0296 31.3055C90.3803 32.0543 90.5512 32.9645 90.5512 34.0405C90.5512 35.1166 90.3758 36.0313 90.0296 36.7756C89.6789 37.5244 89.2203 38.0893 88.6493 38.4794C88.0782 38.8695 87.4443 39.0623 86.7564 39.0623ZM86.7564 37.5602C87.1475 37.5602 87.5027 37.4302 87.8265 37.1612C88.1457 36.8967 88.402 36.5021 88.5863 35.9775C88.7707 35.4529 88.8651 34.8072 88.8651 34.0361C88.8651 33.2649 88.7707 32.6192 88.5863 32.0991C88.402 31.579 88.1457 31.1844 87.8265 30.9154C87.5072 30.6464 87.1475 30.5119 86.7564 30.5119C86.3652 30.5119 86.01 30.6464 85.6863 30.9154C85.367 31.1844 85.1107 31.579 84.9264 32.0991C84.742 32.6192 84.6476 33.2649 84.6476 34.0361C84.6476 34.8072 84.742 35.4529 84.9264 35.9775C85.1107 36.5021 85.367 36.8967 85.6863 37.1612C86.0055 37.4257 86.3652 37.5602 86.7564 37.5602Z" fill="white"/>
<path d="M93.4872 38.9099V29.1624H96.8099C97.4619 29.1624 98.0329 29.2834 98.5185 29.53C99.0086 29.7766 99.3862 30.1174 99.665 30.5613C99.9393 31.0007 100.079 31.5163 100.079 32.0992C100.079 32.7403 99.9123 33.2918 99.5751 33.7537C99.2379 34.22 98.7837 34.5562 98.2082 34.7715L100.344 38.9054H98.541L96.5986 35.0091H95.1598V38.9054H93.4827L93.4872 38.9099ZM95.1643 33.6774H96.6705C97.1921 33.6774 97.6057 33.534 97.9205 33.2515C98.2307 32.969 98.3881 32.5969 98.3881 32.1306C98.3881 31.6643 98.2307 31.2787 97.9205 30.9962C97.6102 30.7137 97.1921 30.5702 96.6705 30.5702H95.1643V33.673V33.6774Z" fill="white"/>
<path d="M103.105 38.9099V29.1624H104.782V33.5205L108.284 29.1624H110.195L106.256 33.8837L110.375 38.9099H108.266L104.777 34.4531V38.9099H103.1H103.105Z" fill="white"/>
</svg>
